:version 1.10
:name ASF
:units
  mass 1
  length 1
  angle deg
:documentation
  ASF file generated by Kaydara
:root
  axis xyz
  order  tx ty tz rx ry rz
  position 0 0 0
  orientation 0 0 0
:bonedata
  begin
    id 1
    name RightUpLegDummy
    direction -0.718183 -0.695806 0.00816078
    length 4.904
    axis 0 0 0 xyz
  end
  begin
    id 2
    name RightUpLeg
    direction 3.53373e-006 -0.995788 0.0916898
    length 17.4976
    axis -3.49089 -0.000906625 0.000286804 xyz
    dof rx ry rz
  end
  begin
    id 3
    name RightLeg
    direction 0.00371092 -0.995096 -0.0988419
    length 16.5821
    axis 3.68512 0.0193738 -0.131023 xyz
    dof rx ry rz
  end
  begin
    id 4
    name RightFoot
    direction 0.00079151 -0.46099 0.887405
    length 3.77069
    axis 4.81691e-005 -0.120479 -0.188788 xyz
    dof rx ry rz
  end
  begin
    id 5
    name RightToes
    direction 0 0 0
    length 0
    axis 0 0 0 xyz
    dof rx ry rz
  end
  begin
    id 6
    name SpineDummy
    direction 8.3039e-015 1 4.57515e-016
    length 4.6813
    axis 0 0 0 xyz
  end
  begin
    id 7
    name Spine
    direction -3.15643e-008 0.999988 0.00495137
    length 10.1015
    axis -0.001389 0.000121418 2.40972e-006 xyz
    dof rx ry rz
  end
  begin
    id 8
    name Spine1
    direction 0 0 0
    length 0
    axis -0.001389 0.000121451 1.30017e-006 xyz
    dof rx ry rz
  end
  begin
    id 9
    name HEadDummy
    direction -1.99912e-008 0.999999 0.00127422
    length 3.43865
    axis -0.001389 0.000121451 1.30017e-006 xyz
  end
  begin
    id 10
    name HEad
    direction 0 0 0
    length 0
    axis 0 0 0 xyz
    dof rx ry rz
  end
  begin
    id 11
    name LeftShoulder1Dummy
    direction 0.998891 -0.0402509 -0.0244456
    length 3.5433
    axis -0.001389 0.000121451 1.30017e-006 xyz
  end
  begin
    id 12
    name LeftShoulder1
    direction 0.99951 -0.000327763 0.0313091
    length 4.05031
    axis -0.001389 0.000121451 1.30017e-006 xyz
    dof rx ry rz
  end
  begin
    id 13
    name LeftArm
    direction 0.998561 -0.00100056 -0.0536182
    length 10.3537
    axis -23.1894 0.134784 0.967509 xyz
    dof rx ry rz
  end
  begin
    id 14
    name LeftForeArm
    direction 0.998903 0.00866432 0.046012
    length 8.70632
    axis -9.91835 -0.06569 -0.177794 xyz
    dof rx ry rz
  end
  begin
    id 15
    name LeftHand
    direction 0 0 0
    length 0
    axis 0 0 0 xyz
    dof rx ry rz
  end
  begin
    id 16
    name RightShoulderDummy
    direction -0.998891 -0.0402509 -0.0244414
    length 3.5433
    axis -0.001389 0.000121451 1.30017e-006 xyz
  end
  begin
    id 17
    name RightShoulder
    direction -0.99951 -0.000327807 0.0313133
    length 4.05031
    axis 0.215806 0.000203643 -0.0068026 xyz
    dof rx ry rz
  end
  begin
    id 18
    name RightArm
    direction -0.998573 -0.000999564 -0.053403
    length 10.3947
    axis -23.2009 -0.134239 -0.964101 xyz
    dof rx ry rz
  end
  begin
    id 19
    name RightForeArm
    direction -0.998898 0.00868028 0.0461306
    length 8.68355
    axis -9.92322 0.0658061 0.178868 xyz
    dof rx ry rz
  end
  begin
    id 20
    name RightHand
    direction 0 0 0
    length 0
    axis 0 0 0 xyz
    dof rx ry rz
  end
  begin
    id 21
    name LeftUpLegDummy
    direction 0.718183 -0.695806 0.00816078
    length 4.904
    axis 0 0 0 xyz
  end
  begin
    id 22
    name LeftUpLeg
    direction -6.81752e-006 -0.995793 0.0916337
    length 17.4976
    axis -3.48766 0.00143442 -0.000524262 xyz
    dof rx ry rz
  end
  begin
    id 23
    name LeftLeg
    direction -0.00601358 -0.995091 -0.0987824
    length 16.5821
    axis 3.68178 -0.00654042 -0.000285133 xyz
    dof rx ry rz
  end
  begin
    id 24
    name LeftFoot
    direction -0.00417578 -0.460984 0.887399
    length 3.77069
    axis 1.87233e-006 4.66016e-005 -8.6538e-006 xyz
    dof rx ry rz
  end
  begin
    id 25
    name LeftToes
    direction 0 0 0
    length 0
    axis 0 0 0 xyz
    dof rx ry rz
  end
:hierarchy
  begin
    root RightUpLegDummy SpineDummy LeftUpLegDummy
    RightUpLegDummy RightUpLeg
    RightUpLeg RightLeg
    RightLeg RightFoot
    RightFoot RightToes
    SpineDummy Spine
    Spine Spine1
    Spine1 HEadDummy LeftShoulder1Dummy RightShoulderDummy
    HEadDummy HEad
    LeftShoulder1Dummy LeftShoulder1
    LeftShoulder1 LeftArm
    LeftArm LeftForeArm
    LeftForeArm LeftHand
    RightShoulderDummy RightShoulder
    RightShoulder RightArm
    RightArm RightForeArm
    RightForeArm RightHand
    LeftUpLegDummy LeftUpLeg
    LeftUpLeg LeftLeg
    LeftLeg LeftFoot
    LeftFoot LeftToes
  end

:SAMPLES-PER-SECOND 30
:FULLY-SPECIFIED
:DEGREES
392
root  14.7146 40.6622 9.76756 150.064 87.3002 152.749
RightUpLeg  3.4646 -11.6164 -12.616
RightLeg  4.83512 -10.5946 2.71138
RightFoot  -0.0102712 -0.437888 4.42977
RightToes  0.000481921 0.542163 -0.142578
Spine  -2.41362 2.45509 4.52233
Spine1  12.0787 4.76638 -7.68679
HEad  14.594 -7.80519 3.71612
LeftShoulder1  9.44186 -14.5501 -45.5978
LeftArm  -7.09503 11.0363 -25.8292
LeftForeArm  174.602 -55.4745 -165.825
LeftHand  -0.25398 0.0180481 5.50724
RightShoulder  1.5212 3.91195 13.5906
RightArm  -20.1705 52.0733 33.1406
RightForeArm  -13.1954 45.2499 12.1634
RightHand  -5.39031 15.8301 -29.3132
LeftUpLeg  3.2866 7.33257 8.45935
LeftLeg  0.444026 12.7295 -3.2561
LeftFoot  2.8837 0.708841 -5.85635
LeftToes  1.06245e-005 4.65869e-005 -8.65517e-006
393
root  14.7316 40.6616 9.77568 150.899 87.2569 153.521
RightUpLeg  3.4611 -11.5908 -12.5695
RightLeg  4.78364 -10.6983 2.70772
RightFoot  -0.0226517 -0.435778 4.40407
RightToes  0.000481921 0.542163 -0.142578
Spine  -2.34864 2.26105 4.05976
Spine1  12.0201 4.38059 -7.01327
HEad  14.4378 -6.99688 2.90744
LeftShoulder1  9.44745 -14.4244 -45.9565
LeftArm  -7.45407 11.2189 -25.4626
LeftForeArm  174.651 -55.335 -165.899
LeftHand  -0.25398 0.0180481 5.50724
RightShoulder  1.92746 4.71873 16.7988
RightArm  -19.9209 47.2267 32.4819
RightForeArm  -5.41816 54.5954 16.4457
RightHand  -4.76638 14.1978 -28.1447
LeftUpLeg  3.2429 7.33877 8.47812
LeftLeg  0.4221 12.6732 -3.25879
LeftFoot  2.87954 0.710191 -5.86501
LeftToes  1.06245e-005 4.65869e-005 -8.65517e-006
394
root  14.7503 40.661 9.7778 151.405 87.2142 153.992
RightUpLeg  3.47947 -11.5945 -12.564
RightLeg  4.76336 -10.7544 2.71541
RightFoot  -0.0517911 -0.433345 4.37609
RightToes  0.000481921 0.542163 -0.142578
Spine  -2.26587 2.04173 3.60742
Spine1  12.0028 3.95951 -6.3142
HEad  14.2652 -6.081 2.20595
LeftShoulder1  9.45756 -14.2863 -46.3757
LeftArm  -7.87587 11.3879 -25.2065
LeftForeArm  174.65 -55.2219 -165.956
LeftHand  -0.25398 0.0180481 5.50724
RightShoulder  2.34707 5.43349 19.8512
RightArm  -19.564 42.2876 32.0127
RightForeArm  3.40586 63.3574 23.0969
RightHand  -4.005 12.0896 -26.5938
LeftUpLeg  3.21141 7.33589 8.47462
LeftLeg  0.447753 12.6289 -3.24432
LeftFoot  2.85702 0.710589 -5.86132
LeftToes  1.06245e-005 4.65869e-005 -8.65517e-006
395
root  14.768 40.6605 9.77789 151.364 87.2165 153.92
RightUpLeg  3.45517 -11.5922 -12.56
RightLeg  4.80267 -10.7524 2.70208
RightFoot  -0.0999044 -0.433517 4.39647
RightToes  0.000481921 0.542163 -0.142578
Spine  -2.19772 1.82381 3.0249
Spine1  12.1431 3.50191 -5.44776
HEad  13.9615 -5.15964 1.60027
LeftShoulder1  9.42412 -14.1009 -46.7069
LeftArm  -8.34066 11.5189 -25.1772
LeftForeArm  174.576 -55.0853 -166.019
LeftHand  -0.25398 0.0180481 5.50724
RightShoulder  2.74861 6 22.6884
RightArm  -19.1013 37.5701 31.5981
RightForeArm  15.3034 70.9064 34.2139
RightHand  -3.43976 10.331 -25.4515
LeftUpLeg  3.19123 7.34771 8.48043
LeftLeg  0.482253 12.6082 -3.24796
LeftFoot  2.8197 0.711003 -5.86166
LeftToes  1.06245e-005 4.65869e-005 -8.65517e-006
396
root  14.7854 40.6604 9.77657 150.844 87.2458 153.338
RightUpLeg  3.37931 -11.5961 -12.5642
RightLeg  4.85661 -10.7124 2.6887
RightFoot  -0.143597 -0.436097 4.44708
RightToes  0.000481921 0.542163 -0.142578
Spine  -2.2969 1.63558 2.32487
Spine1  12.5668 3.03291 -4.39293
HEad  13.6046 -4.43032 1.0749
LeftShoulder1  9.40948 -13.949 -47.0479
LeftArm  -8.81245 11.5472 -25.1281
LeftForeArm  174.434 -54.9434 -166.078
LeftHand  -0.25398 0.0180481 5.50724
RightShoulder  3.1279 6.4589 25.2908
RightArm  -18.6037 33.1159 31.2046
RightForeArm  35.2646 76.5553 54.1628
RightHand  -3.12246 9.24449 -24.8362
LeftUpLeg  3.16731 7.35494 8.47584
LeftLeg  0.476038 12.6336 -3.27123
LeftFoot  2.78777 0.711803 -5.87304
LeftToes  1.06245e-005 4.65869e-005 -8.65517e-006
397
root  14.8057 40.6608 9.77052 149.713 87.2826 152.128
RightUpLeg  3.30398 -11.641 -12.6152
RightLeg  4.87857 -10.6188 2.7122
RightFoot  -0.171728 -0.436641 4.46431
RightToes  0.000481921 0.542163 -0.142578
Spine  -2.5735 1.45779 1.69371
Spine1  13.1798 2.58047 -3.36889
HEad  13.2962 -3.89286 0.596078
LeftShoulder1  9.45404 -13.8712 -47.4909
LeftArm  -9.25424 11.4946 -24.8868
LeftForeArm  174.286 -54.8499 -166.113
LeftHand  -0.25398 0.0180481 5.50724
RightShoulder  3.49344 6.87589 27.6372
RightArm  -17.9876 28.7754 30.8982
RightForeArm  67.7003 79.0265 86.8942
RightHand  -2.86054 8.31886 -24.3004
LeftUpLeg  3.1527 7.32464 8.42328
LeftLeg  0.428457 12.732 -3.2838
LeftFoot  2.76527 0.712732 -5.89271
LeftToes  1.06245e-005 4.65869e-005 -8.65517e-006
398
root  14.8288 40.6613 9.76096 148.045 87.3385 150.39
RightUpLeg  3.24971 -11.7044 -12.69
RightLeg  4.87923 -10.4784 2.75216
RightFoot  -0.192772 -0.43416 4.43296
RightToes  0.000481921 0.542163 -0.142578
Spine  -2.74137 1.24955 1.23119
Spine1  13.5922 2.14362 -2.56966
HEad  13.0651 -3.39016 0.123389
LeftShoulder1  9.48506 -13.7936 -47.8663
LeftArm  -9.5827 11.5293 -24.6382
LeftForeArm  174.233 -54.7809 -166.142
LeftHand  -0.25398 0.0180481 5.50724
RightShoulder  3.82599 7.24228 29.6348
RightArm  -17.1222 24.3879 30.8282
RightForeArm  100.239 77.5091 119.22
RightHand  -2.51359 7.11219 -23.4308
LeftUpLeg  3.1609 7.27996 8.34988
LeftLeg  0.373607 12.8718 -3.28826
LeftFoot  2.74075 0.712827 -5.90686
LeftToes  1.06245e-005 4.65869e-005 -8.65517e-006
399
root  14.8508 40.6619 9.75345 146.516 87.4082 148.787
RightUpLeg  3.18416 -11.7276 -12.7208
RightLeg  4.8747 -10.3703 2.76175
RightFoot  -0.204797 -0.43204 4.40577
RightToes  0.000481921 0.542163 -0.142578
Spine  -2.57566 1.02327 0.864723
Spine1  13.5192 1.73151 -1.97113
HEad  12.9601 -2.90307 -0.224014
LeftShoulder1  9.44442 -13.6817 -47.9725
LeftArm  -9.68205 11.7309 -24.5699
LeftForeArm  174.293 -54.6837 -166.195
LeftHand  -0.25398 0.0180481 5.50724
RightShoulder  4.08399 7.49086 31.1986
RightArm  -15.9932 19.7792 31.1383
RightForeArm  120.95 73.767 138.62
RightHand  -2.15157 5.89256 -22.2574
LeftUpLeg  3.16033 7.27337 8.31539
LeftLeg  0.32965 12.9753 -3.32049
LeftFoot  2.7175 0.710156 -5.88998
LeftToes  1.06245e-005 4.65869e-005 -8.65517e-006
400
root  14.8726 40.6625 9.74774 145.848 87.4524 148.004
RightUpLeg  3.09726 -11.7071 -12.7001
RightLeg  4.83443 -10.3548 2.74838
RightFoot  -0.195674 -0.432917 4.42387
RightToes  0.000481921 0.542163 -0.142578
Spine  -2.27268 0.825774 0.565979
Spine1  13.1705 1.39023 -1.52365
HEad  13.0046 -2.54531 -0.226565
LeftShoulder1  9.38031 -13.6052 -47.8584
LeftArm  -9.55378 11.9261 -24.6086
LeftForeArm  174.412 -54.5889 -166.251
LeftHand  -0.25398 0.0180481 5.50724
RightShoulder  4.2498 7.59047 32.365
RightArm  -14.5826 14.8269 31.8828
RightForeArm  132.993 69.4274 149.293
RightHand  -1.93267 5.18591 -21.3557
LeftUpLeg  3.10236 7.30062 8.31587
LeftLeg  0.299431 13.0102 -3.37659
LeftFoot  2.70504 0.7038 -5.84185
LeftToes  1.06245e-005 4.65869e-005 -8.65517e-006
401
root  14.9021 40.6628 9.73785 145.923 87.4458 147.928
RightUpLeg  3.02696 -11.6984 -12.692
RightLeg  4.73527 -10.3896 2.75973
RightFoot  -0.17779 -0.435342 4.46491
RightToes  0.000481921 0.542163 -0.142578
Spine  -2.17956 0.650786 0.393485
Spine1  12.9765 1.12328 -1.24691
HEad  13.0533 -2.29997 0.0474698
LeftShoulder1  9.34509 -13.5855 -47.7317
LeftArm  -9.40496 11.9385 -24.6355
LeftForeArm  174.563 -54.5465 -166.283
LeftHand  -0.25398 0.0180481 5.50724
RightShoulder  4.34 7.58336 33.2011
RightArm  -12.7559 9.57872 33.0817
RightForeArm  139.169 65.2183 155.425
RightHand  -1.9026 5.06155 -21.2669
LeftUpLeg  2.99266 7.30685 8.2926
LeftLeg  0.283616 13.0162 -3.40986
LeftFoot  2.69046 0.699923 -5.8087
LeftToes  1.06245e-005 4.65869e-005 -8.65517e-006
402
root  14.944 40.6634 9.72366 145.973 87.4015 147.83
RightUpLeg  3.00282 -11.7347 -12.7406
RightLeg  4.62631 -10.4014 2.80383
RightFoot  -0.186983 -0.436737 4.48906
RightToes  0.000481921 0.542163 -0.142578
Spine  -2.29231 0.445359 0.251476
Spine1  13.0171 0.82947 -0.986505
HEad  12.9303 -2.01077 0.209455
LeftShoulder1  9.32248 -13.534 -47.7606
LeftArm  -9.46871 11.8516 -24.6246
LeftForeArm  174.71 -54.5049 -166.315
LeftHand  -0.25398 0.0180481 5.50724
RightShoulder  4.37386 7.52992 33.694
RightArm  -10.4813 4.14643 34.7496
RightForeArm  142.32 61.637 159.063
RightHand  -1.96654 5.20045 -21.6806
LeftUpLeg  2.90528 7.27148 8.224
LeftLeg  0.255338 13.0312 -3.41354
LeftFoot  2.65881 0.699606 -5.82274
LeftToes  1.06245e-005 4.65869e-005 -8.65517e-006
403
root  14.9925 40.6638 9.713 145.584 87.3404 147.341
RightUpLeg  3.01376 -11.7935 -12.8274
RightLeg  4.5853 -10.3841 2.83764
RightFoot  -0.239125 -0.437422 4.50144
RightToes  0.000481921 0.542163 -0.142578
Spine  -2.32094 0.199369 -0.109173
Spine1  13.0208 0.407661 -0.420195
HEad  12.6847 -1.61955 0.0862536
LeftShoulder1  9.2912 -13.394 -47.9975
LeftArm  -9.75052 11.835 -24.5493
LeftForeArm  174.736 -54.3754 -166.379
LeftHand  -0.25398 0.0180481 5.50724
RightShoulder  4.36975 7.46036 33.906
RightArm  -8.03055 -1.41492 36.7318
RightForeArm  145.554 58.8828 161.397
RightHand  -1.99313 5.33598 -21.6994
LeftUpLeg  2.90665 7.22602 8.14308
LeftLeg  0.176437 13.0526 -3.43047
LeftFoot  2.62556 0.700117 -5.84784
LeftToes  1.06245e-005 4.65869e-005 -8.65517e-006
404
root  15.0379 40.6639 9.70989 145.036 87.278 146.751
RightUpLeg  3.03844 -11.8341 -12.906
RightLeg  4.62433 -10.376 2.82909
RightFoot  -0.313323 -0.439732 4.5385
RightToes  0.000481921 0.542163 -0.142578
Spine  -2.15467 -0.039449 -0.748755
Spine1  12.8506 -0.110847 0.528775
HEad  12.5026 -1.20395 -0.0758406
LeftShoulder1  9.2526 -13.2074 -48.3346
LeftArm  -10.057 11.8764 -24.4626
LeftForeArm  174.632 -54.1712 -166.469
LeftHand  -0.25398 0.0180481 5.50724
RightShoulder  4.35738 7.38548 34.0648
RightArm  -5.77155 -6.95911 38.6616
RightForeArm  149.527 56.7787 163.065
RightHand  -1.92489 5.34604 -20.9634
LeftUpLeg  2.97602 7.19578 8.08194
LeftLeg  0.0803924 13.0674 -3.46597
LeftFoot  2.60607 0.698159 -5.83909
LeftToes  1.06245e-005 4.65869e-005 -8.65517e-006
405
root  15.0763 40.6632 9.70915 144.777 87.2445 146.485
RightUpLeg  3.06718 -11.8315 -12.9364
RightLeg  4.68612 -10.3864 2.78713
RightFoot  -0.381381 -0.443864 4.60347
RightToes  0.000481921 0.542163 -0.142578
Spine  -1.95325 -0.24459 -1.43301
Spine1  12.6538 -0.615946 1.56173
HEad  12.4138 -0.79673 -0.110225
LeftShoulder1  9.18701 -13.0134 -48.5565
LeftArm  -10.2615 11.8962 -24.5628
LeftForeArm  174.64 -53.9657 -166.567
LeftHand  -0.25398 0.0180481 5.50724
RightShoulder  4.35419 7.31573 34.2906
RightArm  -3.827 -12.141 40.2177
RightForeArm  152.752 55.1103 164.271
RightHand  -1.80289 5.2105 -19.9243
LeftUpLeg  3.03084 7.18339 8.05602
LeftLeg  0.0717375 13.071 -3.473
LeftFoot  2.57214 0.694715 -5.81857
LeftToes  1.06245e-005 4.65869e-005 -8.65517e-006
